<?xml version="1.0" encoding="utf-8"?>
<svg xmlns="http://www.w3.org/2000/svg" style="margin: auto; background: none; display: block; shape-rendering: auto;" width="118" height="30" preserveAspectRatio="xMidYMid">
<style type="text/css">
  text {
    text-anchor: middle; font-size: 32px; opacity: 0;
  }
</style>
<g style="transform-origin: 59px 15px; transform: scale(1.06667);">
<g transform="translate(59,15)">
  <g transform="translate(0,0)"><g class="path" style="transform: scale(0.91); transform-origin: -42.195px -2.0108px; animation: 0.641026s linear -0.338462s infinite normal forwards running breath-e941c2ab-7b2e-4198-8c5f-cd4f60c66c60;"><path d="M19.67-6.45L19.67-6.45L19.67-6.45Q19.67-5.08 19.33-4.04L19.33-4.04L19.33-4.04Q18.98-3.00 18.36-2.24L18.36-2.24L18.36-2.24Q17.74-1.48 16.89-0.97L16.89-0.97L16.89-0.97Q16.04-0.45 15.04-0.15L15.04-0.15L15.04-0.15Q14.03 0.16 12.91 0.29L12.91 0.29L12.91 0.29Q11.79 0.42 10.63 0.42L10.63 0.42L10.63 0.42Q9.11 0.42 7.82 0.20L7.82 0.20L7.82 0.20Q6.53-0.03 5.40-0.52L5.40-0.52L5.40-0.52Q4.26-1.01 3.22-1.79L3.22-1.79L3.22-1.79Q2.17-2.56 1.13-3.68L1.13-3.68L4.12-6.71L4.12-6.71Q4.53-5.70 5.24-4.84L5.24-4.84L5.24-4.84Q5.96-3.98 6.82-3.37L6.82-3.37L6.82-3.37Q7.68-2.75 8.60-2.40L8.60-2.40L8.60-2.40Q9.52-2.05 10.34-2.05L10.34-2.05L10.34-2.05Q11.31-2.05 12.16-2.19L12.16-2.19L12.16-2.19Q13.01-2.33 13.64-2.65L13.64-2.65L13.64-2.65Q14.27-2.97 14.63-3.51L14.63-3.51L14.63-3.51Q14.99-4.04 14.99-4.85L14.99-4.85L14.99-4.85Q14.99-5.46 14.71-5.90L14.71-5.90L14.71-5.90Q14.43-6.34 13.98-6.66L13.98-6.66L13.98-6.66Q13.54-6.97 12.96-7.19L12.96-7.19L12.96-7.19Q12.39-7.41 11.80-7.57L11.80-7.57L11.80-7.57Q11.21-7.72 10.63-7.84L10.63-7.84L10.63-7.84Q10.06-7.97 9.62-8.10L9.62-8.10L9.62-8.10Q8.76-8.35 7.82-8.64L7.82-8.64L7.82-8.64Q6.88-8.92 5.98-9.29L5.98-9.29L5.98-9.29Q5.07-9.65 4.26-10.13L4.26-10.13L4.26-10.13Q3.44-10.61 2.83-11.26L2.83-11.26L2.83-11.26Q2.21-11.91 1.85-12.77L1.85-12.77L1.85-12.77Q1.48-13.62 1.48-14.74L1.48-14.74L1.48-14.74Q1.48-16.07 1.81-17.10L1.81-17.10L1.81-17.10Q2.14-18.13 2.74-18.90L2.74-18.90L2.74-18.90Q3.34-19.66 4.16-20.18L4.16-20.18L4.16-20.18Q4.98-20.70 5.96-21.01L5.96-21.01L5.96-21.01Q6.94-21.33 8.05-21.47L8.05-21.47L8.05-21.47Q9.16-21.61 10.31-21.61L10.31-21.61L10.31-21.61Q11.89-21.61 13.19-21.31L13.19-21.31L13.19-21.31Q14.49-21.02 15.59-20.48L15.59-20.48L15.59-20.48Q16.68-19.94 17.60-19.18L17.60-19.18L17.60-19.18Q18.52-18.43 19.32-17.50L19.32-17.50L16.33-14.47L16.33-14.47Q15.98-15.53 15.36-16.38L15.36-16.38L15.36-16.38Q14.74-17.23 13.97-17.83L13.97-17.83L13.97-17.83Q13.21-18.44 12.38-18.77L12.38-18.77L12.38-18.77Q11.54-19.10 10.77-19.10L10.77-19.10L10.77-19.10Q9.76-19.10 8.91-18.96L8.91-18.96L8.91-18.96Q8.06-18.82 7.45-18.51L7.45-18.51L7.45-18.51Q6.84-18.19 6.50-17.66L6.50-17.66L6.50-17.66Q6.17-17.12 6.17-16.33L6.17-16.33L6.17-16.33Q6.17-15.70 6.42-15.26L6.42-15.26L6.42-15.26Q6.67-14.82 7.08-14.52L7.08-14.52L7.08-14.52Q7.50-14.21 8.03-14.01L8.03-14.01L8.03-14.01Q8.55-13.81 9.12-13.67L9.12-13.67L9.12-13.67Q9.68-13.52 10.23-13.41L10.23-13.41L10.23-13.41Q10.78-13.30 11.24-13.17L11.24-13.17L11.24-13.17Q12.11-12.92 13.08-12.64L13.08-12.64L13.08-12.64Q14.05-12.36 14.99-11.99L14.99-11.99L14.99-11.99Q15.92-11.62 16.77-11.13L16.77-11.13L16.77-11.13Q17.62-10.65 18.27-9.98L18.27-9.98L18.27-9.98Q18.91-9.32 19.29-8.44L19.29-8.44L19.29-8.44Q19.67-7.57 19.67-6.45" fill="#05a8ff" stroke="none" stroke-width="none" transform="translate(-52.59498119354248,8.58420121765137)" style="fill: rgb(5, 168, 255);"></path></g><g class="path" style="transform: scale(0.91); transform-origin: -19.3886px 0.049201px; animation: 0.641026s linear -0.253846s infinite normal forwards running breath-e941c2ab-7b2e-4198-8c5f-cd4f60c66c60;"><path d="M43.37-10.09L43.37-10.09L43.37-9.81L43.37-9.81Q43.34-8.58 43.12-7.27L43.12-7.27L43.12-7.27Q42.89-5.95 42.48-4.63L42.48-4.63L42.48-4.63Q42.07-3.31 41.50-2.02L41.50-2.02L41.50-2.02Q40.93-0.73 40.22 0.45L40.22 0.45L40.22 0.45Q39.51 1.63 38.69 2.66L38.69 2.66L38.69 2.66Q37.87 3.69 36.96 4.48L36.96 4.48L34.78 3.22L34.78 3.22Q35.29 2.36 35.71 1.34L35.71 1.34L35.71 1.34Q36.12 0.32 36.46-0.79L36.46-0.79L36.46-0.79Q36.80-1.90 37.04-3.08L37.04-3.08L37.04-3.08Q37.28-4.25 37.44-5.41L37.44-5.41L37.44-5.41Q37.60-6.56 37.68-7.68L37.68-7.68L37.68-7.68Q37.76-8.80 37.76-9.81L37.76-9.81L37.76-9.81Q37.76-10.61 37.76-11.61L37.76-11.61L37.76-11.61Q37.75-12.61 37.64-13.65L37.64-13.65L37.64-13.65Q37.53-14.69 37.28-15.68L37.28-15.68L37.28-15.68Q37.03-16.67 36.54-17.45L36.54-17.45L36.54-17.45Q36.05-18.22 35.28-18.69L35.28-18.69L35.28-18.69Q34.51-19.16 33.37-19.16L33.37-19.16L33.37-19.16Q32.36-19.16 31.63-18.82L31.63-18.82L31.63-18.82Q30.91-18.47 30.40-17.89L30.40-17.89L30.40-17.89Q29.90-17.31 29.60-16.55L29.60-16.55L29.60-16.55Q29.30-15.79 29.13-14.95L29.13-14.95L29.13-14.95Q28.96-14.11 28.91-13.25L28.91-13.25L28.91-13.25Q28.86-12.39 28.86-11.63L28.86-11.63L28.86-7.54L35.17-7.54L35.17-5.13L28.86-5.13L28.86 0L23.04 0L23.04-10.72L23.04-10.72Q23.04-13.02 23.77-15L23.77-15L23.77-15Q24.51-16.98 25.85-18.44L25.85-18.44L25.85-18.44Q27.19-19.89 29.07-20.72L29.07-20.72L29.07-20.72Q30.95-21.55 33.27-21.55L33.27-21.55L33.27-21.55Q34.83-21.55 36.20-21.10L36.20-21.10L36.20-21.10Q37.57-20.65 38.70-19.87L38.70-19.87L38.70-19.87Q39.83-19.09 40.72-18.01L40.72-18.01L40.72-18.01Q41.60-16.93 42.19-15.66L42.19-15.66L42.19-15.66Q42.79-14.38 43.10-12.96L43.10-12.96L43.10-12.96Q43.40-11.54 43.37-10.09" fill="#05a8ff" stroke="none" stroke-width="none" transform="translate(-52.59498119354248,8.58420121765137)" style="fill: rgb(255, 43, 33);"></path></g><g class="path" style="transform: scale(0.91); transform-origin: 6.81002px -1.9608px; animation: 0.641026s linear -0.169231s infinite normal forwards running breath-e941c2ab-7b2e-4198-8c5f-cd4f60c66c60;"><path d="M55.88 0L51.06-15.73L49.42 0L45.83 0L49.42-21.09L54.74-21.09L59.68-5.00L64.67-21.09L69.99-21.09L72.98 0L67.06 0L65.32-15.32L61.20 0L55.88 0" fill="#05a8ff" stroke="none" stroke-width="none" transform="translate(-52.59498119354248,8.58420121765137)" style="fill: rgb(255, 207, 0);"></path></g><g class="path" style="transform: scale(0.91); transform-origin: 27.13px -1.9608px; animation: 0.641026s linear -0.0846154s infinite normal forwards running breath-e941c2ab-7b2e-4198-8c5f-cd4f60c66c60;"><path d="M82.63-21.09L82.63 0L76.82 0L76.82-21.09L82.63-21.09" fill="#05a8ff" stroke="none" stroke-width="none" transform="translate(-52.59498119354248,8.58420121765137)" style="fill: rgb(31, 255, 0);"></path></g><g class="path" style="transform: scale(0.91); transform-origin: 44.27px -1.9608px; animation: 0.641026s linear 0s infinite normal forwards running breath-e941c2ab-7b2e-4198-8c5f-cd4f60c66c60;"><path d="M93.22-7.88L93.22 0L87.41 0L87.41-21.09L97.78-21.09L97.78-21.09Q99.24-21.09 100.61-20.75L100.61-20.75L100.61-20.75Q101.97-20.41 103.02-19.67L103.02-19.67L103.02-19.67Q104.06-18.93 104.69-17.75L104.69-17.75L104.69-17.75Q105.31-16.58 105.31-14.91L105.31-14.91L105.31-14.91Q105.31-13.61 104.76-12.46L104.76-12.46L104.76-12.46Q104.21-11.31 103.29-10.41L103.29-10.41L103.29-10.41Q102.38-9.51 101.19-8.91L101.19-8.91L101.19-8.91Q100.00-8.32 98.73-8.13L98.73-8.13L98.73-8.13Q99.30-7.16 99.92-6.30L99.92-6.30L99.92-6.30Q100.55-5.43 101.18-4.68L101.18-4.68L101.18-4.68Q101.82-3.93 102.45-3.29L102.45-3.29L102.45-3.29Q103.08-2.65 103.65-2.12L103.65-2.12L103.65-2.12Q105-0.89 106.32 0L106.32 0L99.07 0L99.07 0Q98.19-0.83 97.40-2.01L97.40-2.01L97.40-2.01Q96.72-3.00 96.04-4.48L96.04-4.48L96.04-4.48Q95.36-5.95 95.00-7.88L95.00-7.88L93.22-7.88zM99.40-14.91L99.40-14.91L99.40-14.91Q99.40-17.04 98.37-18.03L98.37-18.03L98.37-18.03Q97.34-19.03 95.27-19.03L95.27-19.03L93.22-19.03L93.22-9.87L95.27-9.87L95.27-9.87Q96.37-9.87 97.16-10.29L97.16-10.29L97.16-10.29Q97.94-10.71 98.44-11.40L98.44-11.40L98.44-11.40Q98.94-12.10 99.17-13.01L99.17-13.01L99.17-13.01Q99.40-13.92 99.40-14.91" fill="#05a8ff" stroke="none" stroke-width="none" transform="translate(-52.59498119354248,8.58420121765137)" style="fill: rgb(255, 6, 251);"></path></g></g>
</g>
</g>
<style id="breath-e941c2ab-7b2e-4198-8c5f-cd4f60c66c60" data-anikit="">@keyframes breath-e941c2ab-7b2e-4198-8c5f-cd4f60c66c60
{
  0% {
    animation-timing-function: cubic-bezier(0.9647,0.2413,-0.0705,0.7911);
    transform: scale(0.9099999999999999);
  }
  51% {
    animation-timing-function: cubic-bezier(0.9226,0.2631,-0.0308,0.7628);
    transform: scale(1.02994);
  }
  100% {
    transform: scale(0.9099999999999999);
  }
}</style></svg>